# xmcd
#
# Track frame offsets:
#	150
#	16031
#	33508
#	49336
#
# Disc length: 859 seconds
#
# Revision: 1
# Processed by: cddbd v1.5.1PL0 Copyright (c) Steve Scherf et al.
# Submitted via: dBpowerAMP V4.0
#
DISCID=28035904
DTITLE=Bistok Røgsystem - Cigar
DYEAR=2004
DGENRE=Cult
TTITLE0=Cigar
TTITLE1=Cigar Robotmix
TTITLE2=Cigar Instrumental
TTITLE3=Cigar Acapella
EXTD=
EXTT0=
EXTT1=
EXTT2=
EXTT3=
PLAYORDER=
